<?xml version="1.0" encoding="UTF-8"?>
<svg width="512pt" height="512pt" version="1.1" viewBox="0 0 512 512" xmlns="http://www.w3.org/2000/svg">
 <path d="m116.25 50.574c-36.102 0-65.676 29.574-65.676 65.676v279.47c0 36.102 29.574 65.707 65.676 65.707h279.47c36.102 0 65.707-29.602 65.707-65.707v-209.64c-0.015625-3.9961-1.6172-7.8203-4.4531-10.633-2.832-2.8125-6.6719-4.3828-10.664-4.3672-3.9727 0.015625-7.7812 1.6016-10.59 4.4102s-4.3945 6.6172-4.4102 10.59v209.65c0 19.938-15.648 35.59-35.59 35.59l-279.47-0.003906c-19.938 0-35.559-15.648-35.559-35.59v-279.47c0-19.938 15.621-35.559 35.559-35.559h209.56c3.9922 0.015625 7.832-1.5547 10.664-4.3711 2.8359-2.8125 4.4375-6.6367 4.4531-10.629 0.015625-4.0156-1.5703-7.8672-4.4102-10.707s-6.6914-4.4258-10.707-4.4102zm281.27 0c-4 0.007812-7.832 1.6055-10.652 4.4414-2.8164 2.8359-4.3945 6.6758-4.3789 10.676v33.676h-33.793c-3.9922 0.015624-7.8164 1.6172-10.633 4.4531-2.8125 2.8359-4.3828 6.6719-4.3672 10.664 0.015625 3.9727 1.6016 7.7812 4.4102 10.59 2.8086 2.8086 6.6172 4.3945 10.59 4.4102h33.793v33.797c0.015625 3.9766 1.6055 7.7891 4.4219 10.598 2.8164 2.8125 6.6289 4.3945 10.609 4.4023 3.9922 0.015625 7.8281-1.5586 10.664-4.3711 2.8359-2.8125 4.4375-6.6367 4.4531-10.629v-33.797h33.676c3.9922 0.015625 7.832-1.5547 10.664-4.3672 2.8359-2.8125 4.4375-6.6367 4.4531-10.633 0.015625-4.0117-1.5703-7.8672-4.4102-10.707-2.8398-2.8359-6.6914-4.4258-10.707-4.4102h-33.676v-33.676c0.015626-4.0156-1.5742-7.8672-4.4102-10.707-2.8398-2.8398-6.6953-4.4258-10.707-4.4102zm-141.53 74.586c-38.559 0-70.031 31.68-70.031 70.352 0 20.223 8.625 38.57 22.352 51.469-35.938 17.742-60.703 54.855-60.703 97.711v27.148c-0.015624 3.9922 1.5586 7.8281 4.3711 10.664 2.8125 2.8359 6.6367 4.4375 10.629 4.4531 4.0156 0.015625 7.8711-1.5742 10.707-4.4102 2.8398-2.8398 4.4258-6.6953 4.4102-10.707v-27.148c0-43.93 34.676-78.707 78.266-78.707s78.266 34.773 78.266 78.707v27.148c-0.015625 4.0117 1.5703 7.8672 4.4102 10.707 2.8398 2.8359 6.6914 4.4258 10.707 4.4102 3.9961-0.015625 7.8164-1.6172 10.633-4.4531 2.8125-2.8359 4.3828-6.6719 4.3672-10.664v-27.148c0-42.855-24.734-79.969-60.676-97.707 13.727-12.902 22.324-31.246 22.324-51.469 0-38.672-31.469-70.352-70.031-70.352zm0 30c22.156 0 39.91 17.832 39.91 40.352 0 22.523-17.758 40.352-39.91 40.352-22.156 0-39.91-17.832-39.91-40.352 0-22.523 17.758-40.352 39.91-40.352z" fill="#43d6eb" fill-rule="evenodd"/>
</svg>
