<?xml version="1.0" encoding="UTF-8"?>
<svg width="512pt" height="512pt" version="1.1" viewBox="0 0 512 512" xmlns="http://www.w3.org/2000/svg">
 <g fill="#43d6eb">
  <path d="m137.83 114.76v264.4h131.36c-1.4727-2.0703-2.8555-4.2031-4.0664-6.4492h-120.84v-251.5h187.02v160.56c2.1914 0.40234 4.3438 0.89844 6.4492 1.5234v-168.53z" fill-rule="evenodd"/>
  <path d="m186.71 268.93v6.4414h102.14v-6.4414z" fill-rule="evenodd"/>
  <path d="m186.71 294.11v6.4414h87.809c2.168-2.3203 4.5-4.4766 6.9961-6.4414z" fill-rule="evenodd"/>
  <path d="m186.71 319.3v6.4414h73.43c0.64062-2.1953 1.3672-4.3516 2.2344-6.4414z" fill-rule="evenodd"/>
  <path d="m320.05 288.99c-14.355 0-28.125 5.6992-38.277 15.852-10.148 10.152-15.852 23.922-15.852 38.277 0 14.352 5.7031 28.121 15.855 38.27s23.918 15.852 38.273 15.852 28.121-5.7031 38.27-15.855c10.148-10.148 15.852-23.914 15.852-38.266 0-14.355-5.6992-28.125-15.852-38.273-10.148-10.152-23.914-15.855-38.27-15.855zm-3.2305 31.551h6.457v32.785l14.781-14.781 4.5664 4.5586-22.578 22.578-22.57-22.578 4.5664-4.5586 14.781 14.785v-32.793z"/>
  <path d="m237.78 168.18c-22.605 0-40.996 18.391-40.996 40.996s18.391 40.996 40.996 40.996 41.004-18.391 41.004-40.996-18.398-40.996-41.004-40.996zm0 20.719c6.2227 0 11.328 5.1016 11.328 11.324s-5.1094 11.324-11.328 11.324c-6.2227 0-11.324-5.1016-11.324-11.324s5.1016-11.324 11.324-11.324zm0 6.4375c-2.7461 0-4.8867 2.1406-4.8867 4.8867s2.1406 4.8867 4.8867 4.8867 4.8867-2.1406 4.8867-4.8867-2.1406-4.8867-4.8867-4.8867zm-19.43 13.992h6.4375v13.691h25.992v-13.691h6.4375v20.133h-38.863v-20.133z"/>
 </g>
</svg>
