<svg xmlns="http://www.w3.org/2000/svg" viewBox="0 0 512 512">
    <path
        d="M235.47 357.53c5.324 5.531 12.645 8.55 20.531 8.55s15.156-3.019 20.43-8.448l79.105-79.105c5.477-5.375 8.55-12.594 8.55-20.273.052-7.782-2.968-15.105-8.55-20.633-11.418-11.266-29.336-11.266-40.805.05l-29.848 29.848-.008-187.44c0-15.922-12.953-28.875-28.875-28.875s-28.875 12.953-28.875 28.875v187.34l-29.902-29.902c-11.316-11.16-29.645-11.109-40.805.051-5.531 5.531-8.55 12.852-8.5 20.582.051 7.68 3.07 14.898 8.5 20.273zm-67.688-108.55c4.914-4.965 13.055-4.914 18.023 0l43.621 43.621a8.05 8.05 0 0 0 2.61 1.742c1.945.82 4.199.82 6.144 0 1.996-.82 3.531-2.406 4.351-4.351.41-.973.614-2.047.614-3.07V80.071c0-7.016 5.734-12.75 12.75-12.75s12.75 5.734 12.75 12.75v206.85c0 1.023.203 2.097.613 3.07.82 1.996 2.406 3.53 4.352 4.351 1.945.82 4.199.82 6.144 0a8.3 8.3 0 0 0 2.61-1.742l43.57-43.57c5.07-5.02 13.055-5.02 18.074-.05 2.457 2.456 3.789 5.683 3.789 9.113 0 3.378-1.332 6.503-3.79 8.91l-79.097 79.309c-3.07 3.176-6.91 3.636-8.91 3.636-1.997 0-5.837-.46-9.012-3.738l-79.207-79.207c-2.407-2.355-3.739-5.476-3.739-8.86-.05-3.429 1.282-6.706 3.739-9.163z" />
    <path
        d="M431.92 308.33c-15.922 0-28.875 12.953-28.875 28.875v65.793h-294.04v-65.793c0-15.922-12.953-28.875-28.875-28.875s-28.875 12.953-28.875 28.875v94.668c0 15.922 12.953 28.875 28.875 28.875h351.8c15.922 0 28.875-12.953 28.875-28.875v-94.668c0-15.922-12.953-28.875-28.879-28.875zm12.75 123.59c0 7.016-5.734 12.75-12.75 12.75H80.08c-7.016 0-12.75-5.734-12.75-12.75v-94.719c0-7.016 5.734-12.75 12.75-12.75s12.75 5.734 12.75 12.75v73.832a8.02 8.02 0 0 0 8.04 8.04h310.12a8.02 8.02 0 0 0 8.038-8.04l-.004-73.832c0-7.016 5.735-12.75 12.75-12.75s12.75 5.734 12.75 12.75v94.719z" />
</svg>
