<svg xmlns="http://www.w3.org/2000/svg" viewBox="0 0 468 468">
    <path d="M205.433 289.958h-59.249a5 5 0 0 1 0-10h59.249a5 5 0 0 1 0 10" />
    <path
        d="M299.892 0H77C63.215 0 52 11.215 52 25v397.98c0 13.785 11.215 25 25 25h146.032a5 5 0 0 0 0-10H77c-8.271 0-15-6.729-15-15V25c0-8.271 6.729-15 15-15h49.893l9.364 30.119a5 5 0 0 0 4.774 3.516h94.828a5 5 0 0 0 4.774-3.516L249.998 10h49.893c8.271 0 15 6.729 15 14.984l-.555 178.01a5 5 0 0 0 4.984 5.016h.016a5 5 0 0 0 5-4.984L324.892 25c0-13.785-11.215-25-25-25m-67.714 33.634h-87.464L137.365 10h102.162z" />
    <path
        d="M221.718 140.233a40.5 40.5 0 0 0 7.055-22.886c0-22.365-18.091-40.561-40.328-40.561s-40.328 18.196-40.328 40.561a40.5 40.5 0 0 0 7.055 22.886 62.13 62.13 0 0 0-28.892 52.516v16.42c0 8.267 6.725 14.993 14.992 14.993h94.345c8.267 0 14.993-6.726 14.993-14.993v-16.42a62.12 62.12 0 0 0-28.892-52.516m18.893 68.936a5 5 0 0 1-4.993 4.993h-94.345a5 5 0 0 1-4.993-4.993v-16.42a52.14 52.14 0 0 1 25.618-44.908c7.099 6.26 16.386 10.066 26.547 10.066s19.448-3.807 26.547-10.067a52.14 52.14 0 0 1 25.618 44.908v16.421zm172.056 75.619-91.659-32.49a5 5 0 0 0-3.342 0l-35.119 12.448c-1.792-6.277-7.559-10.89-14.392-10.89h-159.42c-8.259 0-14.979 6.731-14.979 15.005v32.195c0 8.274 6.72 15.005 14.979 15.005h113.943v5.084c0 8.412.684 16.727 1.977 24.89h-115.92c-8.259 0-14.979 6.731-14.979 15.005v32.195c0 8.274 6.72 15.005 14.979 15.005h139.882c16.039 25.515 41.015 45.279 68.266 59.115a5 5 0 0 0 4.905 0c56.31-26.951 94.663-83.066 94.207-146.211V289.5a5 5 0 0 0-3.328-4.712M222.678 289.5v16.561H108.735c-2.746 0-4.979-2.246-4.979-5.005v-32.195c0-2.76 2.233-5.005 4.979-5.005h159.421c2.489 0 4.539 1.852 4.903 4.253l-47.051 16.678a5 5 0 0 0-3.33 4.713m-10.762 88.366c0 3.59-2.901 6.501-6.481 6.501s-6.48-2.91-6.48-6.501c0-3.59 2.901-6.501 6.48-6.501s6.481 2.911 6.481 6.501m-33.977 0c0 3.59-2.901 6.501-6.481 6.501s-6.481-2.91-6.481-6.501c0-3.59 2.901-6.501 6.481-6.501s6.481 2.911 6.481 6.501m-33.976 0c0 3.59-2.901 6.501-6.481 6.501s-6.481-2.91-6.481-6.501c0-3.59 2.902-6.501 6.481-6.501s6.481 2.911 6.481 6.501m262.033-56.72c.346 58.422-34.588 110.827-86.659 136.116-52.071-25.291-87.006-77.695-86.659-136.116v-28.113l86.659-30.718 86.659 30.718z" />
    <path
        d="M320 308.623c-14.622 0-26.519 11.908-26.519 26.545 0 12.926 9.28 23.718 21.519 26.066v45.144a5 5 0 1 0 10 0v-45.144c12.239-2.348 21.519-13.14 21.519-26.066 0-14.637-11.897-26.545-26.519-26.545" />
</svg>
