<svg width="162" height="90" viewBox="0 0 162 90" fill="none" xmlns="http://www.w3.org/2000/svg">
<rect width="162" height="90" fill="white"/>
<path d="M55.29 41.92V42.12C55.0633 42.1267 54.89 42.1533 54.77 42.2C54.6567 42.24 54.58 42.32 54.54 42.44C54.5 42.5533 54.48 42.7333 54.48 42.98V47.94C54.48 48.18 54.5 48.36 54.54 48.48C54.58 48.6 54.6567 48.68 54.77 48.72C54.89 48.76 55.0633 48.7867 55.29 48.8V49C55.1367 48.9867 54.9433 48.98 54.71 48.98C54.4833 48.9733 54.2533 48.97 54.02 48.97C53.76 48.97 53.5167 48.9733 53.29 48.98C53.0633 48.98 52.88 48.9867 52.74 49V48.8C52.9667 48.7867 53.1367 48.76 53.25 48.72C53.37 48.68 53.45 48.6 53.49 48.48C53.53 48.36 53.55 48.18 53.55 47.94V42.44L53.59 42.47L51.14 49.05H50.98L48.46 42.56V47.84C48.46 48.08 48.48 48.27 48.52 48.41C48.5667 48.5433 48.6533 48.64 48.78 48.7C48.9133 48.7533 49.11 48.7867 49.37 48.8V49C49.25 48.9867 49.0933 48.98 48.9 48.98C48.7067 48.9733 48.5233 48.97 48.35 48.97C48.1833 48.97 48.0133 48.9733 47.84 48.98C47.6733 48.98 47.5333 48.9867 47.42 49V48.8C47.6467 48.7867 47.8167 48.7533 47.93 48.7C48.05 48.64 48.13 48.5433 48.17 48.41C48.21 48.27 48.23 48.08 48.23 47.84V42.98C48.23 42.7333 48.21 42.5533 48.17 42.44C48.13 42.32 48.05 42.24 47.93 42.2C47.8167 42.1533 47.6467 42.1267 47.42 42.12V41.92C47.5333 41.9267 47.6733 41.9333 47.84 41.94C48.0133 41.9467 48.1833 41.95 48.35 41.95C48.4967 41.95 48.6467 41.9467 48.8 41.94C48.96 41.9333 49.0933 41.9267 49.2 41.92L51.47 47.9L51.3 47.98L53.55 41.95C53.63 41.95 53.7067 41.95 53.78 41.95C53.86 41.95 53.94 41.95 54.02 41.95C54.2533 41.95 54.4833 41.9467 54.71 41.94C54.9433 41.9333 55.1367 41.9267 55.29 41.92ZM58.2552 43.71C58.8418 43.71 59.2985 43.89 59.6252 44.25C59.9585 44.6033 60.1252 45.1567 60.1252 45.91H56.5952L56.5852 45.72H59.1652C59.1785 45.3933 59.1518 45.0933 59.0852 44.82C59.0185 44.54 58.9118 44.3167 58.7652 44.15C58.6252 43.9833 58.4418 43.9 58.2152 43.9C57.9085 43.9 57.6352 44.0533 57.3952 44.36C57.1618 44.6667 57.0218 45.1533 56.9752 45.82L57.0052 45.86C56.9918 45.96 56.9818 46.07 56.9752 46.19C56.9685 46.31 56.9652 46.43 56.9652 46.55C56.9652 47.0033 57.0385 47.3933 57.1852 47.72C57.3318 48.0467 57.5218 48.2967 57.7552 48.47C57.9952 48.6367 58.2418 48.72 58.4952 48.72C58.6952 48.72 58.8852 48.69 59.0652 48.63C59.2452 48.5633 59.4118 48.4567 59.5652 48.31C59.7185 48.1633 59.8518 47.9667 59.9652 47.72L60.1652 47.8C60.0918 48.02 59.9718 48.2333 59.8052 48.44C59.6385 48.6467 59.4285 48.8167 59.1752 48.95C58.9218 49.0767 58.6285 49.14 58.2952 49.14C57.8152 49.14 57.4018 49.03 57.0552 48.81C56.7152 48.59 56.4518 48.2867 56.2652 47.9C56.0852 47.5067 55.9952 47.0567 55.9952 46.55C55.9952 45.9633 56.0885 45.46 56.2752 45.04C56.4618 44.6133 56.7252 44.2867 57.0652 44.06C57.4052 43.8267 57.8018 43.71 58.2552 43.71ZM63.9938 43.71C64.1738 43.71 64.3304 43.7467 64.4638 43.82C64.6038 43.8933 64.7104 43.99 64.7838 44.11C64.8638 44.2233 64.9038 44.3533 64.9038 44.5C64.9038 44.6667 64.8504 44.8133 64.7438 44.94C64.6438 45.0667 64.5071 45.13 64.3338 45.13C64.1938 45.13 64.0704 45.0867 63.9638 45C63.8571 44.9067 63.8038 44.7767 63.8038 44.61C63.8038 44.4833 63.8371 44.3767 63.9038 44.29C63.9771 44.1967 64.0571 44.1233 64.1438 44.07C64.0971 44.0033 64.0271 43.97 63.9338 43.97C63.7271 43.97 63.5371 44.0333 63.3638 44.16C63.1904 44.28 63.0438 44.4367 62.9238 44.63C62.8038 44.8233 62.7104 45.03 62.6438 45.25C62.5771 45.4633 62.5438 45.6633 62.5438 45.85V47.97C62.5438 48.2967 62.6371 48.5167 62.8238 48.63C63.0171 48.7367 63.2771 48.79 63.6038 48.79V49C63.4504 48.9933 63.2338 48.9867 62.9538 48.98C62.6738 48.9667 62.3771 48.96 62.0637 48.96C61.8371 48.96 61.6104 48.9667 61.3838 48.98C61.1638 48.9867 60.9971 48.9933 60.8838 49V48.79C61.1571 48.79 61.3504 48.74 61.4638 48.64C61.5838 48.54 61.6438 48.35 61.6438 48.07V44.94C61.6438 44.64 61.5904 44.42 61.4838 44.28C61.3771 44.1333 61.1771 44.06 60.8838 44.06V43.85C61.0971 43.87 61.3038 43.88 61.5038 43.88C61.6971 43.88 61.8804 43.87 62.0538 43.85C62.2338 43.8233 62.3971 43.7867 62.5438 43.74V44.99C62.6171 44.7967 62.7204 44.6033 62.8538 44.41C62.9938 44.21 63.1604 44.0433 63.3538 43.91C63.5471 43.7767 63.7604 43.71 63.9938 43.71ZM67.6416 43.71C67.8549 43.71 68.0616 43.7367 68.2616 43.79C68.4616 43.8433 68.6416 43.9233 68.8016 44.03C68.9549 44.13 69.0716 44.2467 69.1516 44.38C69.2316 44.5067 69.2716 44.6467 69.2716 44.8C69.2716 44.98 69.2216 45.12 69.1216 45.22C69.0216 45.3133 68.8949 45.36 68.7416 45.36C68.5949 45.36 68.4649 45.3167 68.3516 45.23C68.2449 45.1433 68.1916 45.02 68.1916 44.86C68.1916 44.7067 68.2316 44.5833 68.3116 44.49C68.3982 44.3967 68.4982 44.3367 68.6116 44.31C68.5449 44.19 68.4249 44.09 68.2516 44.01C68.0849 43.93 67.9049 43.89 67.7116 43.89C67.5449 43.89 67.3782 43.93 67.2116 44.01C67.0449 44.09 66.8916 44.2233 66.7516 44.41C66.6116 44.59 66.4982 44.84 66.4116 45.16C66.3249 45.4733 66.2816 45.8667 66.2816 46.34C66.2816 46.9267 66.3482 47.3933 66.4816 47.74C66.6149 48.0867 66.7882 48.3367 67.0016 48.49C67.2216 48.6367 67.4616 48.71 67.7216 48.71C67.8949 48.71 68.0716 48.6767 68.2516 48.61C68.4316 48.5433 68.6016 48.4367 68.7616 48.29C68.9216 48.1367 69.0582 47.9333 69.1716 47.68L69.3616 47.75C69.2949 47.9633 69.1849 48.18 69.0316 48.4C68.8782 48.6133 68.6782 48.79 68.4316 48.93C68.1849 49.07 67.8816 49.14 67.5216 49.14C67.1082 49.14 66.7349 49.0333 66.4016 48.82C66.0682 48.6067 65.8016 48.3033 65.6016 47.91C65.4082 47.51 65.3116 47.0367 65.3116 46.49C65.3116 45.9433 65.4082 45.4633 65.6016 45.05C65.8016 44.63 66.0782 44.3033 66.4316 44.07C66.7849 43.83 67.1882 43.71 67.6416 43.71ZM72.4348 43.71C73.0215 43.71 73.4782 43.89 73.8048 44.25C74.1382 44.6033 74.3048 45.1567 74.3048 45.91H70.7748L70.7648 45.72H73.3448C73.3582 45.3933 73.3315 45.0933 73.2648 44.82C73.1982 44.54 73.0915 44.3167 72.9448 44.15C72.8048 43.9833 72.6215 43.9 72.3948 43.9C72.0882 43.9 71.8148 44.0533 71.5748 44.36C71.3415 44.6667 71.2015 45.1533 71.1548 45.82L71.1848 45.86C71.1715 45.96 71.1615 46.07 71.1548 46.19C71.1482 46.31 71.1448 46.43 71.1448 46.55C71.1448 47.0033 71.2182 47.3933 71.3648 47.72C71.5115 48.0467 71.7015 48.2967 71.9348 48.47C72.1748 48.6367 72.4215 48.72 72.6748 48.72C72.8748 48.72 73.0648 48.69 73.2448 48.63C73.4248 48.5633 73.5915 48.4567 73.7448 48.31C73.8982 48.1633 74.0315 47.9667 74.1448 47.72L74.3448 47.8C74.2715 48.02 74.1515 48.2333 73.9848 48.44C73.8182 48.6467 73.6082 48.8167 73.3548 48.95C73.1015 49.0767 72.8082 49.14 72.4748 49.14C71.9948 49.14 71.5815 49.03 71.2348 48.81C70.8948 48.59 70.6315 48.2867 70.4448 47.9C70.2648 47.5067 70.1748 47.0567 70.1748 46.55C70.1748 45.9633 70.2682 45.46 70.4548 45.04C70.6415 44.6133 70.9048 44.2867 71.2448 44.06C71.5848 43.8267 71.9815 43.71 72.4348 43.71ZM79.6134 41.16V47.91C79.6134 48.21 79.6668 48.4333 79.7734 48.58C79.8868 48.72 80.0868 48.79 80.3734 48.79V49C80.1668 48.98 79.9601 48.97 79.7534 48.97C79.5601 48.97 79.3734 48.98 79.1934 49C79.0201 49.02 78.8601 49.0567 78.7134 49.11V42.36C78.7134 42.06 78.6601 41.84 78.5534 41.7C78.4468 41.5533 78.2468 41.48 77.9534 41.48V41.27C78.1668 41.29 78.3734 41.3 78.5734 41.3C78.7668 41.3 78.9501 41.29 79.1234 41.27C79.3034 41.2433 79.4668 41.2067 79.6134 41.16ZM77.5134 43.71C77.8068 43.71 78.0801 43.78 78.3334 43.92C78.5934 44.06 78.7668 44.3 78.8534 44.64L78.7234 44.74C78.6301 44.46 78.4834 44.2567 78.2834 44.13C78.0901 44.0033 77.8601 43.94 77.5934 43.94C77.2001 43.94 76.8701 44.1433 76.6034 44.55C76.3434 44.9567 76.2168 45.5833 76.2234 46.43C76.2234 46.97 76.2734 47.42 76.3734 47.78C76.4801 48.1333 76.6334 48.4 76.8334 48.58C77.0401 48.7533 77.2901 48.84 77.5834 48.84C77.8634 48.84 78.1168 48.72 78.3434 48.48C78.5701 48.24 78.7068 47.8867 78.7534 47.42L78.8734 47.56C78.8201 48.0667 78.6568 48.4567 78.3834 48.73C78.1168 49.0033 77.7534 49.14 77.2934 49.14C76.8801 49.14 76.5168 49.04 76.2034 48.84C75.8968 48.64 75.6601 48.34 75.4934 47.94C75.3334 47.54 75.2534 47.0367 75.2534 46.43C75.2534 45.8233 75.3568 45.32 75.5634 44.92C75.7768 44.5133 76.0534 44.21 76.3934 44.01C76.7401 43.81 77.1134 43.71 77.5134 43.71ZM83.304 43.71C83.8907 43.71 84.3473 43.89 84.674 44.25C85.0073 44.6033 85.174 45.1567 85.174 45.91H81.644L81.634 45.72H84.214C84.2273 45.3933 84.2007 45.0933 84.134 44.82C84.0673 44.54 83.9607 44.3167 83.814 44.15C83.674 43.9833 83.4907 43.9 83.264 43.9C82.9573 43.9 82.684 44.0533 82.444 44.36C82.2107 44.6667 82.0707 45.1533 82.024 45.82L82.054 45.86C82.0407 45.96 82.0307 46.07 82.024 46.19C82.0173 46.31 82.014 46.43 82.014 46.55C82.014 47.0033 82.0873 47.3933 82.234 47.72C82.3807 48.0467 82.5707 48.2967 82.804 48.47C83.044 48.6367 83.2907 48.72 83.544 48.72C83.744 48.72 83.934 48.69 84.114 48.63C84.294 48.5633 84.4607 48.4567 84.614 48.31C84.7673 48.1633 84.9007 47.9667 85.014 47.72L85.214 47.8C85.1407 48.02 85.0207 48.2333 84.854 48.44C84.6873 48.6467 84.4773 48.8167 84.224 48.95C83.9707 49.0767 83.6773 49.14 83.344 49.14C82.864 49.14 82.4507 49.03 82.104 48.81C81.764 48.59 81.5007 48.2867 81.314 47.9C81.134 47.5067 81.044 47.0567 81.044 46.55C81.044 45.9633 81.1373 45.46 81.324 45.04C81.5107 44.6133 81.774 44.2867 82.114 44.06C82.454 43.8267 82.8507 43.71 83.304 43.71ZM87.7226 43.71C87.9892 43.71 88.2159 43.7533 88.4026 43.84C88.5892 43.9267 88.7259 44.0067 88.8126 44.08C89.0326 44.26 89.1659 44.14 89.2126 43.72H89.4426C89.4292 43.9067 89.4192 44.13 89.4126 44.39C89.4059 44.6433 89.4026 44.9867 89.4026 45.42H89.1726C89.1326 45.1733 89.0626 44.9333 88.9626 44.7C88.8692 44.4667 88.7292 44.2767 88.5426 44.13C88.3559 43.9767 88.1126 43.9 87.8126 43.9C87.5792 43.9 87.3826 43.9667 87.2226 44.1C87.0692 44.2267 86.9926 44.4167 86.9926 44.67C86.9926 44.87 87.0526 45.0433 87.1726 45.19C87.2926 45.33 87.4492 45.4633 87.6426 45.59C87.8359 45.71 88.0459 45.8433 88.2726 45.99C88.5259 46.15 88.7559 46.3133 88.9626 46.48C89.1692 46.6467 89.3326 46.83 89.4526 47.03C89.5792 47.23 89.6426 47.4667 89.6426 47.74C89.6426 48.0467 89.5626 48.3033 89.4026 48.51C89.2426 48.7167 89.0326 48.8733 88.7726 48.98C88.5192 49.0867 88.2392 49.14 87.9326 49.14C87.7859 49.14 87.6459 49.1267 87.5126 49.1C87.3859 49.08 87.2626 49.0467 87.1426 49C87.0759 48.9667 87.0059 48.9267 86.9326 48.88C86.8659 48.8333 86.7992 48.7833 86.7326 48.73C86.6659 48.6767 86.6059 48.68 86.5526 48.74C86.4992 48.7933 86.4592 48.9033 86.4326 49.07H86.2026C86.2159 48.8567 86.2259 48.5967 86.2326 48.29C86.2392 47.9833 86.2426 47.5767 86.2426 47.07H86.4726C86.5192 47.4433 86.5859 47.77 86.6726 48.05C86.7592 48.33 86.8959 48.55 87.0826 48.71C87.2692 48.8633 87.5292 48.94 87.8626 48.94C87.9959 48.94 88.1292 48.91 88.2626 48.85C88.4026 48.79 88.5192 48.69 88.6126 48.55C88.7059 48.41 88.7526 48.2233 88.7526 47.99C88.7526 47.6967 88.6459 47.4567 88.4326 47.27C88.2192 47.0833 87.9492 46.8867 87.6226 46.68C87.3826 46.5267 87.1559 46.3733 86.9426 46.22C86.7359 46.0667 86.5659 45.8933 86.4326 45.7C86.3059 45.5067 86.2426 45.2733 86.2426 45C86.2426 44.7 86.3092 44.4567 86.4426 44.27C86.5826 44.0767 86.7659 43.9367 86.9926 43.85C87.2192 43.7567 87.4626 43.71 87.7226 43.71ZM93.0255 41.92C93.1655 41.9267 93.3488 41.9333 93.5755 41.94C93.8021 41.9467 94.0255 41.95 94.2455 41.95C94.5588 41.95 94.8588 41.9467 95.1455 41.94C95.4321 41.9333 95.6355 41.93 95.7555 41.93C96.4555 41.93 96.9821 42.0767 97.3355 42.37C97.6888 42.6633 97.8655 43.04 97.8655 43.5C97.8655 43.7333 97.8155 43.9633 97.7155 44.19C97.6221 44.41 97.4621 44.6133 97.2355 44.8C97.0155 44.98 96.7188 45.1267 96.3455 45.24V45.26C96.8721 45.3267 97.2821 45.4533 97.5755 45.64C97.8755 45.82 98.0855 46.0333 98.2055 46.28C98.3255 46.5267 98.3855 46.7867 98.3855 47.06C98.3855 47.44 98.2888 47.7767 98.0955 48.07C97.9088 48.3567 97.6355 48.5833 97.2755 48.75C96.9155 48.9167 96.4855 49 95.9855 49C95.8388 49 95.6188 48.9967 95.3255 48.99C95.0321 48.9767 94.6788 48.97 94.2655 48.97C94.0321 48.97 93.8021 48.9733 93.5755 48.98C93.3488 48.98 93.1655 48.9867 93.0255 49V48.8C93.2521 48.7867 93.4221 48.76 93.5355 48.72C93.6555 48.68 93.7355 48.6 93.7755 48.48C93.8155 48.36 93.8355 48.18 93.8355 47.94V42.98C93.8355 42.7333 93.8155 42.5533 93.7755 42.44C93.7355 42.32 93.6555 42.24 93.5355 42.2C93.4221 42.1533 93.2521 42.1267 93.0255 42.12V41.92ZM95.5055 42.12C95.1988 42.12 94.9988 42.1767 94.9055 42.29C94.8121 42.4033 94.7655 42.6333 94.7655 42.98V47.94C94.7655 48.1733 94.7855 48.35 94.8255 48.47C94.8655 48.59 94.9388 48.67 95.0455 48.71C95.1521 48.75 95.3088 48.77 95.5155 48.77C96.1688 48.77 96.6421 48.62 96.9355 48.32C97.2355 48.0133 97.3855 47.58 97.3855 47.02C97.3855 46.5067 97.2455 46.11 96.9655 45.83C96.6921 45.55 96.2388 45.41 95.6055 45.41H94.5755C94.5755 45.41 94.5755 45.3833 94.5755 45.33C94.5755 45.27 94.5755 45.24 94.5755 45.24H95.4355C95.8288 45.24 96.1321 45.1667 96.3455 45.02C96.5588 44.8667 96.7055 44.6667 96.7855 44.42C96.8655 44.1667 96.9055 43.8967 96.9055 43.61C96.9055 43.1167 96.7955 42.7467 96.5755 42.5C96.3621 42.2467 96.0055 42.12 95.5055 42.12ZM101.556 43.71C102.143 43.71 102.599 43.89 102.926 44.25C103.259 44.6033 103.426 45.1567 103.426 45.91H99.8959L99.8859 45.72H102.466C102.479 45.3933 102.453 45.0933 102.386 44.82C102.319 44.54 102.213 44.3167 102.066 44.15C101.926 43.9833 101.743 43.9 101.516 43.9C101.209 43.9 100.936 44.0533 100.696 44.36C100.463 44.6667 100.323 45.1533 100.276 45.82L100.306 45.86C100.293 45.96 100.283 46.07 100.276 46.19C100.269 46.31 100.266 46.43 100.266 46.55C100.266 47.0033 100.339 47.3933 100.486 47.72C100.633 48.0467 100.823 48.2967 101.056 48.47C101.296 48.6367 101.543 48.72 101.796 48.72C101.996 48.72 102.186 48.69 102.366 48.63C102.546 48.5633 102.713 48.4567 102.866 48.31C103.019 48.1633 103.153 47.9667 103.266 47.72L103.466 47.8C103.393 48.02 103.273 48.2333 103.106 48.44C102.939 48.6467 102.729 48.8167 102.476 48.95C102.223 49.0767 101.929 49.14 101.596 49.14C101.116 49.14 100.703 49.03 100.356 48.81C100.016 48.59 99.7526 48.2867 99.5659 47.9C99.3859 47.5067 99.2959 47.0567 99.2959 46.55C99.2959 45.9633 99.3893 45.46 99.5759 45.04C99.7626 44.6133 100.026 44.2867 100.366 44.06C100.706 43.8267 101.103 43.71 101.556 43.71ZM107.545 43.71C107.798 43.71 108.008 43.7433 108.175 43.81C108.348 43.8767 108.491 43.97 108.605 44.09C108.731 44.2233 108.821 44.39 108.875 44.59C108.928 44.79 108.955 45.06 108.955 45.4V48.07C108.955 48.35 109.011 48.54 109.125 48.64C109.245 48.74 109.441 48.79 109.715 48.79V49C109.601 48.9933 109.428 48.9867 109.195 48.98C108.961 48.9667 108.735 48.96 108.515 48.96C108.295 48.96 108.078 48.9667 107.865 48.98C107.658 48.9867 107.501 48.9933 107.395 49V48.79C107.635 48.79 107.805 48.74 107.905 48.64C108.005 48.54 108.055 48.35 108.055 48.07V45.18C108.055 44.9733 108.038 44.7833 108.005 44.61C107.971 44.4367 107.895 44.2967 107.775 44.19C107.661 44.0833 107.485 44.03 107.245 44.03C106.965 44.03 106.718 44.11 106.505 44.27C106.298 44.43 106.135 44.65 106.015 44.93C105.901 45.2033 105.845 45.51 105.845 45.85V48.07C105.845 48.35 105.895 48.54 105.995 48.64C106.095 48.74 106.265 48.79 106.505 48.79V49C106.398 48.9933 106.238 48.9867 106.025 48.98C105.818 48.9667 105.605 48.96 105.385 48.96C105.165 48.96 104.938 48.9667 104.705 48.98C104.471 48.9867 104.298 48.9933 104.185 49V48.79C104.458 48.79 104.651 48.74 104.765 48.64C104.885 48.54 104.945 48.35 104.945 48.07V44.94C104.945 44.64 104.891 44.42 104.785 44.28C104.678 44.1333 104.478 44.06 104.185 44.06V43.85C104.398 43.87 104.605 43.88 104.805 43.88C104.998 43.88 105.181 43.87 105.355 43.85C105.535 43.8233 105.698 43.7867 105.845 43.74V44.92C106.018 44.4667 106.258 44.1533 106.565 43.98C106.878 43.8 107.205 43.71 107.545 43.71ZM114.251 43.8L111.361 48.85H112.461C112.728 48.85 112.958 48.7967 113.151 48.69C113.351 48.5833 113.511 48.4133 113.631 48.18C113.751 47.94 113.825 47.6267 113.851 47.24H114.081C114.081 47.6667 114.085 48.0267 114.091 48.32C114.098 48.6133 114.108 48.8533 114.121 49.04C113.828 49.0267 113.521 49.0167 113.201 49.01C112.888 49.0033 112.575 49 112.261 49C111.928 49 111.588 49.0033 111.241 49.01C110.895 49.0233 110.561 49.0367 110.241 49.05L113.131 44H112.031C111.738 44 111.491 44.0533 111.291 44.16C111.098 44.2667 110.948 44.44 110.841 44.68C110.741 44.9133 110.675 45.2233 110.641 45.61H110.411C110.411 45.1767 110.408 44.8167 110.401 44.53C110.395 44.2367 110.385 43.9967 110.371 43.81C110.665 43.8233 110.968 43.8333 111.281 43.84C111.601 43.8467 111.918 43.85 112.231 43.85C112.565 43.85 112.905 43.8467 113.251 43.84C113.598 43.8267 113.931 43.8133 114.251 43.8ZM117.527 41.92C117.667 41.9267 117.851 41.9333 118.077 41.94C118.304 41.9467 118.527 41.95 118.747 41.95C119.061 41.95 119.361 41.9467 119.647 41.94C119.934 41.9333 120.137 41.93 120.257 41.93C120.957 41.93 121.484 42.0767 121.837 42.37C122.191 42.6633 122.367 43.04 122.367 43.5C122.367 43.7333 122.317 43.9633 122.217 44.19C122.124 44.41 121.964 44.6133 121.737 44.8C121.517 44.98 121.221 45.1267 120.847 45.24V45.26C121.374 45.3267 121.784 45.4533 122.077 45.64C122.377 45.82 122.587 46.0333 122.707 46.28C122.827 46.5267 122.887 46.7867 122.887 47.06C122.887 47.44 122.791 47.7767 122.597 48.07C122.411 48.3567 122.137 48.5833 121.777 48.75C121.417 48.9167 120.987 49 120.487 49C120.341 49 120.121 48.9967 119.827 48.99C119.534 48.9767 119.181 48.97 118.767 48.97C118.534 48.97 118.304 48.9733 118.077 48.98C117.851 48.98 117.667 48.9867 117.527 49V48.8C117.754 48.7867 117.924 48.76 118.037 48.72C118.157 48.68 118.237 48.6 118.277 48.48C118.317 48.36 118.337 48.18 118.337 47.94V42.98C118.337 42.7333 118.317 42.5533 118.277 42.44C118.237 42.32 118.157 42.24 118.037 42.2C117.924 42.1533 117.754 42.1267 117.527 42.12V41.92ZM120.007 42.12C119.701 42.12 119.501 42.1767 119.407 42.29C119.314 42.4033 119.267 42.6333 119.267 42.98V47.94C119.267 48.1733 119.287 48.35 119.327 48.47C119.367 48.59 119.441 48.67 119.547 48.71C119.654 48.75 119.811 48.77 120.017 48.77C120.671 48.77 121.144 48.62 121.437 48.32C121.737 48.0133 121.887 47.58 121.887 47.02C121.887 46.5067 121.747 46.11 121.467 45.83C121.194 45.55 120.741 45.41 120.107 45.41H119.077C119.077 45.41 119.077 45.3833 119.077 45.33C119.077 45.27 119.077 45.24 119.077 45.24H119.937C120.331 45.24 120.634 45.1667 120.847 45.02C121.061 44.8667 121.207 44.6667 121.287 44.42C121.367 44.1667 121.407 43.8967 121.407 43.61C121.407 43.1167 121.297 42.7467 121.077 42.5C120.864 42.2467 120.507 42.12 120.007 42.12ZM125.048 49.07C124.775 49.07 124.538 49.02 124.338 48.92C124.138 48.8133 123.985 48.6667 123.878 48.48C123.778 48.2933 123.728 48.0767 123.728 47.83C123.728 47.5367 123.795 47.2967 123.928 47.11C124.068 46.9233 124.245 46.7733 124.458 46.66C124.671 46.5467 124.895 46.4533 125.128 46.38C125.368 46.3 125.595 46.2267 125.808 46.16C126.021 46.0867 126.195 46.0033 126.328 45.91C126.468 45.8167 126.538 45.6933 126.538 45.54V44.92C126.538 44.64 126.495 44.4267 126.408 44.28C126.328 44.1333 126.218 44.0367 126.078 43.99C125.938 43.9367 125.781 43.91 125.608 43.91C125.441 43.91 125.261 43.9333 125.068 43.98C124.881 44.0267 124.731 44.1233 124.618 44.27C124.745 44.2967 124.855 44.3633 124.948 44.47C125.041 44.5767 125.088 44.7133 125.088 44.88C125.088 45.0467 125.035 45.18 124.928 45.28C124.821 45.3733 124.685 45.42 124.518 45.42C124.325 45.42 124.181 45.36 124.088 45.24C124.001 45.1133 123.958 44.9733 123.958 44.82C123.958 44.6467 124.001 44.5067 124.088 44.4C124.175 44.2933 124.285 44.1933 124.418 44.1C124.571 43.9933 124.768 43.9033 125.008 43.83C125.255 43.75 125.531 43.71 125.838 43.71C126.111 43.71 126.345 43.7433 126.538 43.81C126.731 43.87 126.891 43.96 127.018 44.08C127.191 44.24 127.305 44.4367 127.358 44.67C127.411 44.8967 127.438 45.17 127.438 45.49V48.27C127.438 48.4367 127.461 48.5567 127.508 48.63C127.561 48.7033 127.641 48.74 127.748 48.74C127.821 48.74 127.891 48.7233 127.958 48.69C128.025 48.6567 128.105 48.6033 128.198 48.53L128.308 48.7C128.168 48.8067 128.035 48.8967 127.908 48.97C127.781 49.0367 127.611 49.07 127.398 49.07C127.205 49.07 127.045 49.0367 126.918 48.97C126.791 48.9033 126.695 48.8067 126.628 48.68C126.568 48.5467 126.538 48.38 126.538 48.18C126.358 48.48 126.141 48.7033 125.888 48.85C125.641 48.9967 125.361 49.07 125.048 49.07ZM125.408 48.67C125.628 48.67 125.831 48.6067 126.018 48.48C126.211 48.3533 126.385 48.1633 126.538 47.91V45.95C126.458 46.0633 126.341 46.16 126.188 46.24C126.035 46.3133 125.868 46.39 125.688 46.47C125.508 46.5433 125.335 46.6333 125.168 46.74C125.008 46.84 124.875 46.9733 124.768 47.14C124.661 47.3067 124.608 47.5233 124.608 47.79C124.608 48.0567 124.678 48.27 124.818 48.43C124.965 48.59 125.161 48.67 125.408 48.67ZM131.968 43.71C132.222 43.71 132.432 43.7433 132.598 43.81C132.772 43.8767 132.915 43.97 133.028 44.09C133.155 44.2233 133.245 44.39 133.298 44.59C133.352 44.79 133.378 45.06 133.378 45.4V48.07C133.378 48.35 133.435 48.54 133.548 48.64C133.668 48.74 133.865 48.79 134.138 48.79V49C134.025 48.9933 133.852 48.9867 133.618 48.98C133.385 48.9667 133.158 48.96 132.938 48.96C132.718 48.96 132.502 48.9667 132.288 48.98C132.082 48.9867 131.925 48.9933 131.818 49V48.79C132.058 48.79 132.228 48.74 132.328 48.64C132.428 48.54 132.478 48.35 132.478 48.07V45.18C132.478 44.9733 132.462 44.7833 132.428 44.61C132.395 44.4367 132.318 44.2967 132.198 44.19C132.085 44.0833 131.908 44.03 131.668 44.03C131.388 44.03 131.142 44.11 130.928 44.27C130.722 44.43 130.558 44.65 130.438 44.93C130.325 45.2033 130.268 45.51 130.268 45.85V48.07C130.268 48.35 130.318 48.54 130.418 48.64C130.518 48.74 130.688 48.79 130.928 48.79V49C130.822 48.9933 130.662 48.9867 130.448 48.98C130.242 48.9667 130.028 48.96 129.808 48.96C129.588 48.96 129.362 48.9667 129.128 48.98C128.895 48.9867 128.722 48.9933 128.608 49V48.79C128.882 48.79 129.075 48.74 129.188 48.64C129.308 48.54 129.368 48.35 129.368 48.07V44.94C129.368 44.64 129.315 44.42 129.208 44.28C129.102 44.1333 128.902 44.06 128.608 44.06V43.85C128.822 43.87 129.028 43.88 129.228 43.88C129.422 43.88 129.605 43.87 129.778 43.85C129.958 43.8233 130.122 43.7867 130.268 43.74V44.92C130.442 44.4667 130.682 44.1533 130.988 43.98C131.302 43.8 131.628 43.71 131.968 43.71ZM136.145 41.16V48.07C136.145 48.35 136.195 48.54 136.295 48.64C136.395 48.74 136.565 48.79 136.805 48.79V49C136.698 48.9933 136.538 48.9867 136.325 48.98C136.118 48.9667 135.908 48.96 135.695 48.96C135.468 48.96 135.238 48.9667 135.005 48.98C134.772 48.9867 134.598 48.9933 134.485 49V48.79C134.758 48.79 134.952 48.74 135.065 48.64C135.185 48.54 135.245 48.35 135.245 48.07V42.36C135.245 42.06 135.192 41.84 135.085 41.7C134.978 41.5533 134.778 41.48 134.485 41.48V41.27C134.698 41.29 134.905 41.3 135.105 41.3C135.298 41.3 135.482 41.29 135.655 41.27C135.835 41.2433 135.998 41.2067 136.145 41.16ZM139.325 43.85V44.05C139.158 44.0633 139.002 44.11 138.855 44.19C138.708 44.2633 138.565 44.3733 138.425 44.52L137.015 46L137.155 45.72L139.015 48.27C139.128 48.4233 139.235 48.5433 139.335 48.63C139.442 48.7167 139.568 48.77 139.715 48.79V49C139.642 48.9933 139.525 48.9867 139.365 48.98C139.212 48.9667 139.058 48.96 138.905 48.96C138.698 48.96 138.488 48.9667 138.275 48.98C138.062 48.9867 137.902 48.9933 137.795 49V48.79C137.928 48.79 138.022 48.7567 138.075 48.69C138.128 48.6233 138.118 48.5433 138.045 48.45L136.895 46.77C136.768 46.59 136.652 46.4733 136.545 46.42C136.445 46.3667 136.298 46.3367 136.105 46.33V46.13C136.318 46.1033 136.492 46.06 136.625 46C136.758 45.9333 136.885 45.8367 137.005 45.71L137.745 44.94C137.958 44.72 138.065 44.5467 138.065 44.42C138.065 44.2867 137.995 44.1933 137.855 44.14C137.722 44.08 137.545 44.05 137.325 44.05V43.85C137.498 43.8567 137.692 43.8667 137.905 43.88C138.125 43.8867 138.308 43.89 138.455 43.89C138.568 43.89 138.678 43.89 138.785 43.89C138.892 43.8833 138.992 43.8767 139.085 43.87C139.178 43.8633 139.258 43.8567 139.325 43.85Z" fill="black"/>
<g clip-path="url(#clip0_297_91)">
<path d="M41.7266 44.5C41.7266 51.2578 36.2578 56.7266 29.5 56.7266C22.7422 56.7266 17.2734 51.2578 17.2734 44.5C17.2734 37.7422 22.7422 32.2734 29.5 32.2734C36.2578 32.2734 41.7266 37.7422 41.7266 44.5ZM29.5 33.0156C23.1328 33.0156 18.0156 38.1328 18.0156 44.5C18.0156 50.8672 23.1719 55.9844 29.5 55.9844C35.8672 55.9844 40.9844 50.8281 40.9844 44.5C40.9844 38.1328 35.8672 33.0156 29.5 33.0156Z" fill="url(#paint0_linear_297_91)"/>
<path d="M29.5 33.0156C23.1328 33.0156 18.0156 38.1328 18.0156 44.5C18.0156 50.8672 23.1719 55.9844 29.5 55.9844C35.8672 55.9844 40.9844 50.8281 40.9844 44.5C40.9844 38.1328 35.8672 33.0156 29.5 33.0156ZM29.5 55.2422C23.5625 55.2422 18.7578 50.4375 18.7578 44.5C18.7578 38.5625 23.5625 33.7578 29.5 33.7578C35.4375 33.7578 40.2422 38.5625 40.2422 44.5C40.2422 50.4375 35.4375 55.2422 29.5 55.2422Z" fill="url(#paint1_linear_297_91)"/>
<path opacity="0.4" d="M29.5 56.7266C36.2578 56.7266 41.7266 51.2578 41.7266 44.5C41.7266 37.7422 36.2578 32.2734 29.5 32.2734C22.7422 32.2734 17.2734 37.7422 17.2734 44.5C17.2734 51.2578 22.7422 56.7266 29.5 56.7266ZM29.5 32C36.375 32 42 37.625 42 44.5C42 51.375 36.375 57 29.5 57C22.625 57 17 51.375 17 44.5C17 37.625 22.625 32 29.5 32Z" fill="url(#paint2_linear_297_91)"/>
<path d="M17.8594 44.5391C17.8594 38.1328 23.0547 32.8594 29.5 32.8594C35.9453 32.8594 41.1406 38.0937 41.1406 44.5391C41.1406 50.9453 35.9453 56.1406 29.5 56.1406C23.0547 56.1406 17.8594 50.9453 17.8594 44.5391ZM21.4922 36.4922C19.4219 38.5625 18.1328 41.4141 18.1328 44.5391C18.1328 47.6641 19.4219 50.5156 21.4531 52.5469C23.5234 54.5781 26.375 55.8672 29.5 55.8672C32.625 55.8672 35.4766 54.6172 37.5078 52.5469C39.5781 50.5156 40.8281 47.6641 40.8281 44.5391C40.8281 41.4141 39.5391 38.5625 37.5078 36.4922C35.4766 34.4219 32.625 33.1328 29.5 33.1328C26.375 33.1328 23.5234 34.4219 21.4922 36.4922Z" fill="white"/>
<path opacity="0.4" d="M29.5 55.2812C26.6094 55.2812 23.9141 54.1484 21.8828 52.1172C19.8516 50.0859 18.7188 47.3906 18.7188 44.5C18.7188 41.6094 19.8516 38.9141 21.8828 36.8828C23.9141 34.8516 26.6094 33.7188 29.5 33.7188C32.3906 33.7188 35.0859 34.8516 37.1172 36.8828C39.1484 38.9141 40.2812 41.6094 40.2812 44.5C40.2812 47.3906 39.1484 50.0859 37.1172 52.1172C35.0859 54.1484 32.3906 55.2812 29.5 55.2812ZM29.5 54.9687C32.2734 54.9687 34.9297 53.875 36.8828 51.9219C38.875 49.9297 39.9297 47.3125 39.9297 44.5391C39.9297 41.7656 38.8359 39.1094 36.8828 37.1562C34.8906 35.1641 32.2734 34.1094 29.5 34.1094C26.7266 34.1094 24.0703 35.2031 22.1172 37.1562C20.125 39.0703 19.0312 41.7266 19.0312 44.5C19.0312 47.2734 20.125 49.9297 22.0781 51.8828C24.0703 53.875 26.7266 54.9687 29.5 54.9687Z" fill="url(#paint3_linear_297_91)"/>
<path d="M38.9922 49.5781C38.7969 49.4219 31.2578 43.4453 31.2578 43.4453L29.5 33.4062C29.3828 33.4453 29.2266 33.5625 29.1484 33.7188L27.8984 43.4844L20.125 49.4609C20.125 49.4609 19.9687 49.6563 19.8906 49.7734C19.8516 49.8516 19.8516 49.9688 19.8516 50.0859L29.4609 46.1406L39.0703 50.0859C39.1484 49.8906 39.0703 49.6953 38.9922 49.5781Z" fill="white"/>
<path d="M29.5781 44.8126L29.5 46.6094L38.3281 50.1641C38.6406 50.3204 38.875 50.2423 39.1094 50.086L29.6953 44.7735C29.6562 44.7344 29.5781 44.7735 29.5781 44.8126Z" fill="#565F64"/>
<path d="M29.5781 44.8126C29.5781 44.8126 30.0859 45.711 30.6719 46.336C31.4922 47.2344 32.5859 47.8594 32.5859 47.8594L38.3281 50.1641C38.6406 50.3204 38.875 50.2423 39.1094 50.086L29.6953 44.7735C29.6562 44.7344 29.5781 44.7735 29.5781 44.8126Z" fill="url(#paint4_linear_297_91)"/>
<path d="M39.0703 49.7344C39.0703 49.6953 39.0312 49.6563 38.9922 49.5781L30.9453 43.6797L29.8516 44.3828C29.8516 44.3828 29.9297 44.4219 29.9687 44.3828C30.0859 44.3438 30.3203 44.3047 30.5547 44.3828C30.75 44.4609 39.0703 49.7734 39.0703 49.7734C39.0703 49.7734 39.0703 49.7734 39.0703 49.7344Z" fill="#A4AAAE" fill-opacity="0.6"/>
<path d="M38.7969 49.3828L31.2969 43.4453L30.9453 43.6797L38.9922 49.6172C38.9531 49.5391 38.875 49.4609 38.7969 49.3828Z" fill="#333E46"/>
<path d="M29.6953 44.2266C29.6563 44.2656 29.6563 44.2656 29.6563 44.2656C29.6563 44.2656 29.6562 44.3437 29.7344 44.3047C29.7734 44.2656 30.9062 43.6797 31.2969 43.4453L29.9297 34.0703C29.8906 33.7188 29.7344 33.5625 29.4609 33.4453L29.6172 44.3047L29.6953 44.2266Z" fill="#565F64"/>
<path d="M29.0312 34.0703V34.5781L28.1719 43.2109C28.1719 43.3281 28.2109 43.4453 28.3281 43.5234L28.8359 43.9141L29.1875 34.3828L29.2266 33.6406C29.1094 33.7188 29.0703 33.875 29.0312 34.0703Z" fill="#A4AAAE" fill-opacity="0.6"/>
<path d="M28.5625 44.0703L28.0938 43.6797L20.1641 49.4219C20.1641 49.4219 19.9297 49.5781 19.8906 49.7344L20.1641 49.5781L28.4844 44.3438C28.6406 44.2656 28.6797 44.1875 28.5625 44.0703Z" fill="#A4AAAE" fill-opacity="0.6"/>
<path d="M29.3828 44.8126C29.3828 44.7735 29.3437 44.7344 29.3047 44.7735L19.8516 50.1251C20.0859 50.2813 20.3203 50.3204 20.6328 50.2032L29.4609 46.6485L29.3828 44.8126Z" fill="#565F64"/>
<path d="M29.6562 44.2656L29.6953 44.2266C29.6562 44.2656 29.6562 44.2656 29.6562 44.2656C29.6562 44.2656 29.6562 44.3047 29.6953 44.3047H29.7344C29.7734 44.2656 30.9062 43.6797 31.2969 43.4453L31.1406 42.3125L29.9297 34.0703C29.9297 33.9141 29.8906 33.7969 29.8125 33.7188C29.8125 33.7188 30.3984 41.6094 30.3984 42.4687C30.3984 43.6016 29.6562 44.2656 29.6562 44.2656Z" fill="url(#paint5_linear_297_91)"/>
<path d="M29.3828 44.8126C29.3828 44.7735 29.3437 44.7344 29.3047 44.7735L19.8516 50.1251C20.0859 50.2813 20.3203 50.3204 20.6328 50.2032L29.4609 46.6485L29.3828 44.8126Z" fill="url(#paint6_linear_297_91)" fill-opacity="0.8"/>
<path opacity="0.8" d="M20.6328 50.1641L29.4609 46.6094L29.3828 44.8906C29.2266 45.3594 28.9531 45.8672 28.2109 46.2578C27.6641 46.5703 22.4297 49.1484 20.5547 50.0469C20.4375 50.125 20.2813 50.1641 20.2031 50.2031C20.3594 50.2812 20.4766 50.2422 20.6328 50.1641Z" fill="url(#paint7_linear_297_91)"/>
<path d="M29.6953 44.2266C29.6563 44.2656 29.6563 44.2656 29.6563 44.2656C29.6563 44.2656 29.6562 44.3437 29.7344 44.3047C29.7734 44.2656 30.9062 43.6797 31.2969 43.4453L29.9297 34.0703C29.8906 33.7188 29.7344 33.5625 29.4609 33.4453L29.6172 44.3047L29.6953 44.2266Z" fill="url(#paint8_linear_297_91)"/>
<path d="M29.6953 44.2266C29.6563 44.2656 29.6563 44.2656 29.6563 44.2656C29.6563 44.2656 29.6562 44.3437 29.7344 44.3047C29.7734 44.2656 30.9062 43.6797 31.2969 43.4453L29.9297 34.0703C29.8906 33.7188 29.7344 33.5625 29.4609 33.4453L29.6172 44.3047L29.6953 44.2266Z" fill="url(#paint9_linear_297_91)"/>
<path d="M18.9922 49.3438C18.7188 48.7188 17.1563 45.6719 18.875 39.8125H18.2109C17.8594 40.9844 17.5859 41.6875 17.4297 42.7422C17.4297 42.7422 17.3516 43.1328 17.3125 43.5625C17.2734 43.9922 17.2734 44.2266 17.2734 44.5C17.2734 46.8438 17.8594 48.2109 17.8594 48.2109C18.4844 50.1641 19.5781 51.9219 21.0625 53.25C22.3516 54.3828 24.3437 55.2422 25.9844 55.5547C25.7109 55.5156 21.0234 53.5234 18.9922 49.3438Z" fill="url(#paint10_linear_297_91)"/>
<path d="M29.6563 44.7344H29.3047C29.3438 44.7344 29.3828 44.7344 29.3828 44.7735L29.4609 46.5704H29.5L29.5781 44.7735C29.5781 44.7344 29.6172 44.6954 29.6563 44.7344Z" fill="url(#paint11_linear_297_91)"/>
<path d="M33.4062 32.8984C37.5078 34.4609 41.375 38.7578 41.375 44.1875C41.375 50.75 36.1406 56.1016 29.5 56.1016V56.7266C36.1406 56.7266 41.7266 51.2578 41.7266 44.5C41.7266 39.1094 38.2891 34.5781 33.4062 32.8984Z" fill="url(#paint12_linear_297_91)"/>
<path d="M39.9688 39.8906C37.2344 33.6016 31.0625 33.25 30.7109 33.2109C30.7109 33.2109 30.7109 33.2109 30.6719 33.2109C35.3984 34.0703 38.4063 37.1563 39.4609 40.3984V40.4375C39.9297 41.6875 40.1641 43.0156 40.2031 44.4609C40.2422 45.8281 39.9297 47.3516 39.3438 48.7578C39.3047 48.9531 39.2656 49.1875 39.2266 49.1875H39.8516C41.7266 45.6719 40.9063 42.1172 39.9688 39.8906Z" fill="url(#paint13_linear_297_91)"/>
<path d="M17.8594 44.5391C17.8594 38.1328 23.0547 32.8594 29.5 32.8594C35.9453 32.8594 41.1406 38.0937 41.1406 44.5391C41.1406 50.9453 35.9453 56.1406 29.5 56.1406C23.0547 56.1406 17.8594 50.9453 17.8594 44.5391ZM21.4922 36.4922C19.4219 38.5625 18.1328 41.4141 18.1328 44.5391C18.1328 47.6641 19.4219 50.5156 21.4531 52.5469C23.5234 54.5781 26.375 55.8672 29.5 55.8672C32.625 55.8672 35.4766 54.6172 37.5078 52.5469C39.5781 50.5156 40.8281 47.6641 40.8281 44.5391C40.8281 41.4141 39.5391 38.5625 37.5078 36.4922C35.4766 34.4219 32.625 33.1328 29.5 33.1328C26.375 33.1328 23.5234 34.4219 21.4922 36.4922Z" fill="#FBFBFB"/>
<path d="M20.0859 49.5L28.0547 43.7578C28.4844 43.9922 29.1875 44.3047 29.2656 44.3047C29.3438 44.3437 29.3438 44.2656 29.3438 44.2656L28.3672 43.4453C28.25 43.3672 28.2109 43.25 28.2109 43.1328L29.1484 33.7188C29.1094 33.7578 29.1094 33.8359 29.0703 33.875C29.0312 33.9531 29.0312 33.9922 29.0312 34.0703L27.6641 43.4844L20.1641 49.3828C20.125 49.4219 20.0859 49.4609 20.0859 49.5Z" fill="#333F47"/>
</g>
<defs>
<linearGradient id="paint0_linear_297_91" x1="20.125" y1="36.6484" x2="38.875" y2="52.3516" gradientUnits="userSpaceOnUse">
<stop stop-color="white"/>
<stop offset="0.1" stop-color="#CDD0D0"/>
<stop offset="0.2" stop-color="#A5ACAF"/>
<stop offset="0.3" stop-color="#98A0A4"/>
<stop offset="0.4" stop-color="#828A8F"/>
<stop offset="0.5" stop-color="#667075"/>
<stop offset="0.6" stop-color="#535C63"/>
<stop offset="0.7" stop-color="#475158"/>
<stop offset="0.8" stop-color="#434D54"/>
<stop offset="1" stop-color="#475157"/>
</linearGradient>
<linearGradient id="paint1_linear_297_91" x1="20.7109" y1="37.1172" x2="38.2891" y2="51.8828" gradientUnits="userSpaceOnUse">
<stop stop-color="#0B1F2A"/>
<stop offset="0.2" stop-color="#333F47"/>
<stop offset="0.5" stop-color="#81898D"/>
<stop offset="0.7" stop-color="#B3B8B8"/>
<stop offset="0.8" stop-color="#DEE0DD"/>
<stop offset="1" stop-color="#FBFBFB"/>
</linearGradient>
<linearGradient id="paint2_linear_297_91" x1="33.7862" y1="56.2606" x2="25.2315" y2="32.745" gradientUnits="userSpaceOnUse">
<stop stop-color="#E1E3E1"/>
<stop offset="0.1" stop-color="#C1C5C4"/>
<stop offset="0.3" stop-color="#9BA1A2"/>
<stop offset="0.5" stop-color="#7D8487"/>
<stop offset="0.7" stop-color="#687074" stop-opacity="0"/>
<stop offset="0.8" stop-color="#5B6469" stop-opacity="0"/>
<stop offset="1" stop-color="#576065" stop-opacity="0"/>
</linearGradient>
<linearGradient id="paint3_linear_297_91" x1="24.1094" y1="35.1641" x2="34.8906" y2="53.8359" gradientUnits="userSpaceOnUse">
<stop stop-color="#E1E3E1"/>
<stop offset="0.1" stop-color="#C1C5C4"/>
<stop offset="0.3" stop-color="#9BA1A2"/>
<stop offset="0.5" stop-color="#7D8487"/>
<stop offset="0.7" stop-color="#687074" stop-opacity="0"/>
<stop offset="0.8" stop-color="#5B6469" stop-opacity="0"/>
<stop offset="1" stop-color="#576065" stop-opacity="0"/>
</linearGradient>
<linearGradient id="paint4_linear_297_91" x1="34.3828" y1="47.3907" x2="33.7187" y2="48.4844" gradientUnits="userSpaceOnUse">
<stop stop-color="#27343C"/>
<stop offset="1" stop-color="#00111E" stop-opacity="0"/>
</linearGradient>
<linearGradient id="paint5_linear_297_91" x1="32.4687" y1="43.3672" x2="31.375" y2="41.6094" gradientUnits="userSpaceOnUse">
<stop offset="0.1" stop-color="#02131F"/>
<stop offset="0.9" stop-color="#02131F" stop-opacity="0"/>
</linearGradient>
<linearGradient id="paint6_linear_297_91" x1="29.5" y1="46.2188" x2="27.8594" y2="46.6876" gradientUnits="userSpaceOnUse">
<stop offset="0.2" stop-color="#02131F"/>
<stop offset="0.9" stop-color="#02131F" stop-opacity="0"/>
</linearGradient>
<linearGradient id="paint7_linear_297_91" x1="25.125" y1="48.3672" x2="24.8906" y2="47.7813" gradientUnits="userSpaceOnUse">
<stop stop-color="#02131F"/>
<stop offset="0.1" stop-color="#02131F"/>
<stop offset="1" stop-color="#02131F" stop-opacity="0"/>
</linearGradient>
<linearGradient id="paint8_linear_297_91" x1="30.9062" y1="38.7187" x2="29.5781" y2="38.875" gradientUnits="userSpaceOnUse">
<stop offset="0.3" stop-color="#02131F"/>
<stop offset="0.8" stop-color="#02131F" stop-opacity="0"/>
</linearGradient>
<linearGradient id="paint9_linear_297_91" x1="30.9453" y1="38.6797" x2="30.0469" y2="38.7969" gradientUnits="userSpaceOnUse">
<stop offset="0.4" stop-color="#27343C"/>
<stop offset="1" stop-color="#3B474E" stop-opacity="0"/>
</linearGradient>
<linearGradient id="paint10_linear_297_91" x1="16.8438" y1="44.8516" x2="27.7422" y2="51.1406" gradientUnits="userSpaceOnUse">
<stop stop-color="#25323B" stop-opacity="0"/>
<stop offset="0.1" stop-color="#27343C"/>
</linearGradient>
<linearGradient id="paint11_linear_297_91" x1="29.5" y1="46.6094" x2="29.5" y2="44.7344" gradientUnits="userSpaceOnUse">
<stop offset="0.3" stop-color="#A5ABAF"/>
<stop offset="1" stop-color="#A5ABAF" stop-opacity="0"/>
</linearGradient>
<linearGradient id="paint12_linear_297_91" x1="35.6328" y1="32.8984" x2="35.6328" y2="56.7266" gradientUnits="userSpaceOnUse">
<stop stop-color="#6B7378"/>
<stop offset="0.2" stop-color="#333F47"/>
<stop offset="0.5" stop-color="#27343C"/>
<stop offset="0.8" stop-color="#333F47"/>
<stop offset="1" stop-color="#434D54"/>
</linearGradient>
<linearGradient id="paint13_linear_297_91" x1="39.3828" y1="35.1641" x2="34.1094" y2="42.8984" gradientUnits="userSpaceOnUse">
<stop offset="0.7" stop-color="#49545B"/>
<stop offset="0.8" stop-color="white" stop-opacity="0"/>
</linearGradient>
<clipPath id="clip0_297_91">
<rect width="25" height="25" fill="white" transform="translate(17 32)"/>
</clipPath>
</defs>
</svg>
