<svg xmlns="http://www.w3.org/2000/svg" width="381" height="381" viewBox="167 296 381 381">
    <path fill="#06384A" d="m441.852 522.355-14.142 14.142-60.103-60.103 14.142-14.142z" />
    <path fill="#084B63" d="m381.749 462.251-14.143 14.142-60.102-60.102 14.142-14.142z" />
    <path fill="#419EBE"
        d="m222.65 338.508-21.213 21.213 44.194 44.194 17.677-3.536 3.536-17.677-20.329-34.472zM265.076 296.081l-21.213 21.213 9.723 23.865 34.471 20.33 17.678-3.536 3.535-17.678z" />
    <path fill="#82C8DB" d="m243.863 317.294-21.213 21.214 44.194 44.194 17.678-3.536 3.535-17.677z" />
    <path fill="#146A8A"
        d="m311.038 426.896-16.794-30.936-27.4-13.258-21.213 21.213 44.194 44.194zM353.464 384.47l-44.194-44.195-21.213 21.214 13.258 27.4 30.936 16.794z" />
    <path fill="#419EBE" d="m311.038 426.896-44.193-44.193 21.214-21.213 44.192 44.193z" />
    <path fill="#146A8A"
        d="m417.104 532.962-21.213 21.213 44.194 44.194 17.678-3.535 3.535-17.678-13.258-27.4zM459.53 490.536l-21.213 21.213 16.794 30.936 27.4 13.258 17.678-3.536 3.536-17.677z" />
    <path fill="#2089B0" d="m438.317 511.749-21.213 21.213 44.194 44.194 17.678-3.535 3.535-17.678z" />
    <path fill="#06384A"
        d="m505.492 621.35-9.722-23.865-34.472-20.329-21.213 21.213 44.194 44.195zM547.919 578.924l-44.194-44.194-21.214 21.213 20.33 34.471 23.865 9.723z" />
    <path fill="#146A8A" d="m505.492 621.35-44.193-44.192 21.213-21.213 44.193 44.193z" />
    <path fill="#06384A"
        d="m339.322 525.89-32.527 32.527-21.213-21.213 32.527-32.527zM509.028 356.185l-21.213-21.213H459.53l17.678 31.82 31.82 17.678z" />
    <path fill="#62B3CD" d="m459.53 334.972-35.355 35.355 24.749 24.749 31.82-17.678 3.535-17.677z" />
    <path fill="#2089B0" d="m473.672 419.824-24.748-24.75 35.355-35.355 24.749 24.75z" />
    <path fill="#82C8DB" d="M417.104 349.114 289.825 476.393l38.891 38.891 63.639-49.497 63.64-77.782z" />
    <path fill="#419EBE" d="m367.608 554.173-38.89-38.89 127.277-127.276 38.89 38.89z" />
    <path fill="#06384A" d="m243.355 613.771-21.214 21.214L208 620.842l21.213-21.213z" />
    <path fill="#146A8A" d="m238.468 594.743 16.977-32.22-17.694-9.323-23.849 45.26 15.819 15.819h14.142v-14.142z" />
    <path fill="#06384A" d="m290.8 606.249-9.323-17.694-32.22 16.977-5.394-5.395-14.142 14.142 15.819 15.819z" />
    <path fill="#FFFFFF"
        d="m167.69 492.462 91.924 91.924 33.588-19.445 19.445-33.588c-39.281-39.281-94.905-52.244-144.957-38.891" />
    <path fill="#A3DDE9" d="m312.647 531.353-53.033 53.033 91.924 91.924c13.353-50.052.39-105.676-38.891-144.957" />
</svg>
