<svg xmlns="http://www.w3.org/2000/svg" viewBox="0 0 256 256">
    <path fill="#32445C" d="M0 0h256v256H0z" />
    <path fill="#FCFCFC"
        d="m96 83 .576 1.626c6.083 17.002 13.68 32.71 23.244 48.026C121 135 121 135 121 139a80 80 0 0 1-4.875 5.813c-14.598 16.69-25.598 36.819-33.312 57.562l-.81 2.173C79.96 210.398 79.141 215.727 78 222H33c0-20.927 0-20.927 1.25-28.25l.407-2.526C35.885 183.968 37.765 177.009 40 170l1.086-3.781C49.67 136.552 66.592 111.008 88 89l1.614-1.698C93.77 83 93.77 83 96 83" />
    <path fill="#FDFDFD"
        d="M217 37v44l-20 6c-3.526 1.369-6.86 2.7-10.25 4.313l-2.479 1.15c-16.793 7.92-31.745 17.718-45.966 29.627A137 137 0 0 1 132 127c-9.394-14.023-16.655-29.497-22.812-45.187l-.79-1.941c-1.602-4.296-1.602-4.296-.68-6.894 1.47-2.267 2.792-3.276 5.071-4.712l2.33-1.479 2.506-1.537 2.58-1.602C150.556 45.071 181.492 37 217 37M217 96v111c-18.339-7.336-36.023-22.48-49.629-36.629-1.488-1.546-1.488-1.546-3.871-3.309-3.628-2.992-6.486-6.462-9.5-10.062l-1.602-1.867A829 829 0 0 1 147 148.75l-1.82-2.114-1.68-2.027-1.531-1.813C141 141 141 141 141.216 138.916c3.587-8.764 17.289-16.087 24.784-20.916l1.717-1.12C181.176 108.172 200.535 96 217 96" />
    <path fill="#5AC1A1"
        d="M129 150c3.298 1.393 4.916 2.862 7 5.75 20.708 27.536 47.03 48.523 77 65.25v1H92c4.613-23.064 15.546-44.49 30-63l2.176-2.844A437 437 0 0 1 129 150" />
    <path fill="#1F344B"
        d="M222 34v2l2 1h-2v3l-2-1-1 43-2-1 1-45h-15v-1q3.625-.252 7.25-.5l2.066-.145c3.241-.22 6.433-.355 9.684-.355" />
    <path fill="#283951"
        d="M222 34v2l2 1h-2v3c-2-1-2-1-4-3-2.57-.306-5.048-.51-7.625-.625l-2.14-.117c-1.745-.094-3.49-.177-5.235-.258v-1q3.625-.252 7.25-.5l2.066-.145c3.241-.22 6.433-.355 9.684-.355" />
    <path fill="#29364C" d="m92 83 2 1-13 13c0-4.049 1.293-5.016 4-8a177 177 0 0 1 7-6" />
    <path fill="#445265" d="M165 168q1.693 1.4 3.375 2.813l1.898 1.582C172 174 172 174 174 177l-2 2-1-3-3-1v-3l-3-1z" />
    <path fill="#2C4957" d="m172 193 12 6-1 4q-2.474-1.931-4.937-3.875l-2.778-2.18C173 195 173 195 172 193" />
    <path fill="#2E3F53" d="M108 68v2l2 1-.937 1.813C107.898 75.09 107.898 75.09 107 78l-1-7h-2v-2c2-1 2-1 4-1" />
    <path fill="#394864" d="M184 36h5l-1 3-8 1v-2h4z" />
    <path fill="#3B4A63" d="M139 120c2 1 2 1 3 2v2h-2l-1 3-3-4z" />
    <path fill="#2F3F52" d="M101 165c1.125 3.75 1.125 3.75 0 6-2.062 1.125-2.062 1.125-4 2 1.75-5.75 1.75-5.75 4-8" />
</svg>