<svg xmlns="http://www.w3.org/2000/svg" width="341.333" height="341.333" version="1.0" viewBox="0 0 256 256">
    <path
        d="M0 128v128h256V0H0zm217-69.8v22.3l-13.3 4.3c-22.6 7.2-46 20.3-63.9 35.6-8.9 7.6-7.2 8.3-15-5.9-9.8-18.1-18.5-39.9-16.7-42.1 2.2-2.7 20.5-13.8 30.3-18.4C161 43.3 188 36.7 211.8 36.1l5.2-.1zM98.4 90.7c3.9 10.6 12.4 28 18.5 38.1l5 8.3-6.6 8.2C98 166.7 84.1 193.7 78 217.7l-1.1 4.3H32.7l.6-11.8c2.3-43.4 20.3-84.7 51.1-116.9C89.8 87.6 94.5 83 94.9 83c.3 0 1.9 3.5 3.5 7.7m118.2 116c-.2.3-4.7-2.2-9.9-5.5-24.4-15.3-43.6-32.8-62.6-56.8l-4.1-5.1 5.3-5c5.5-5.2 16.8-13.8 25.2-19 8-5.1 28-14.3 37.4-17.4l8.6-2.7.3 55.5c.1 30.6 0 55.8-.2 56M137 158.5c16.6 21.2 46.1 46.3 69.7 59.5 2.4 1.3 4.1 2.5 3.9 2.7-.5.5-117.8.4-118.3-.1-.9-.9 6.1-19.8 11.6-31.1 5.7-11.8 13.3-23.9 21.5-34.2 2.2-2.9 4.4-5.1 4.7-5 .4.1 3.5 3.8 6.9 8.2" />
</svg>