<svg xmlns="http://www.w3.org/2000/svg" fill="#10AADB" viewBox="0 0 300 300"><path d="M59.3 150.4c0-50.1 40.2-90.7 89.8-90.7 50.9 0 91.5 40 91.5 90.1s-40.4 90.4-90.6 90.4c-50.1 0-90.7-40.2-90.7-89.8m28-.2c0 34.4 28.2 62.3 62.8 62.3 34.3 0 62.4-28.3 62.5-62.8 0-34.6-28.1-62.1-63.4-62.1-34.2.1-61.9 28.1-61.9 62.6"/><path d="M255.9 151.6c0-56.1-40.4-101-94.7-106.7-31.5-3.3-59.1 5.9-82.6 27-3 2.7-4.6 3.2-7.6 0-6.2-6.8-6.4-6.6.5-12.6 69.6-59.8 178.3-22.5 196.3 67.5 13.4 67-33.8 133-101.4 141.8-64.9 8.4-123.7-34.6-135-98.9-1-5.6-1.4-11.2-1.5-16.9 0-2.2.7-3 3-3.2 10-.6 10-.7 11.1 8.9 5 43.3 27.3 74.1 68 90 63.4 24.7 132.4-16 142.6-83 1-5.3 1.2-10.5 1.3-13.9"/><path d="M.5 150.4C-.1 75.7 55.1 12.4 129.7 2.3c5.6-.8 11.3-.9 16.9-1.4 2.7-.2 3.6.8 3.7 3.6.3 10.2.4 9.9-9.8 10.6C84 19 38.3 56.9 21.6 106.3c-27.4 81.2 24.9 165.5 110.2 177.6 4.9.7 10 1 15 1.1 2.5.1 3.4.8 3.3 3.3-.4 12.9 2 11-10.2 10.2-64.3-4.2-119-49.1-135-111.8-3-11.8-4.5-23.9-4.4-36.3M299.5 149.8c-.3 38.7-13.5 72.4-39.4 101.2-4.2 4.6-4.2 4.6-8.6.2-5.5-5.5-5.5-5.5-.4-11.2 46.9-51.7 45.8-132.9-2.6-183-2.1-2.2-2.4-3.3-.1-5.6 7.5-7.3 7.4-7.5 14.4.4 23.7 26.7 36.6 61.3 36.7 98"/></svg>