<svg width="162" height="90" viewBox="0 0 162 90" fill="none" xmlns="http://www.w3.org/2000/svg">
<rect width="162" height="90" fill="white"/>
<path d="M39 23.125C26.9189 23.125 17.125 32.9189 17.125 45C17.125 57.0811 26.9189 66.8752 39 66.8752C51.0811 66.8752 60.875 57.0811 60.875 45C60.875 32.9189 51.0811 23.125 39 23.125Z" fill="url(#paint0_linear_297_32)"/>
<path d="M38.9994 58.9728C31.2824 58.9728 25.0264 52.7168 25.0264 44.9998C25.0264 37.2828 31.2824 31.0267 38.9994 31.0267C46.7163 31.0267 52.9724 37.2828 52.9724 44.9998C52.9724 52.7168 46.7165 58.9728 38.9994 58.9728Z" fill="white"/>
<path d="M25.9258 44.9996H38.9998V31.9255C31.7794 31.9255 25.9258 37.7793 25.9258 44.9996ZM38.9998 44.9996V58.0738C46.2205 58.0738 52.0739 52.2202 52.0739 44.9996H38.9998Z" fill="url(#paint1_linear_297_32)"/>
<path fill-rule="evenodd" clip-rule="evenodd" d="M26.8805 31.4987C27.5526 31.082 28.2686 31.2177 28.7317 31.6679C29.4434 32.3596 29.3387 33.1595 28.6618 33.9663L25.6989 37.4972L21.2822 33.7912L24.0918 30.4429C24.6733 29.7499 25.4864 29.1965 26.2589 29.8447C26.2732 29.8567 26.287 29.8682 26.3004 29.8794C26.5104 30.0545 26.616 30.1427 26.8882 30.6391C26.9564 30.8265 27.0088 31.166 26.8805 31.4987ZM25.6273 31.2865C25.3431 31.0481 24.9013 31.0385 24.7058 31.2716L23.0182 33.2827L24.0621 34.1587L25.7306 32.1703C25.9404 31.9203 25.9397 31.5487 25.6273 31.2865ZM25.9152 35.7136L27.6744 33.6173C27.908 33.3389 27.8742 32.9051 27.5334 32.6192C27.2322 32.3665 26.7857 32.436 26.5855 32.6746L24.8121 34.788L25.9152 35.7136Z" fill="white"/>
<path d="M41.2493 26.0565L39.7326 30.0768H38.4732L36.9564 26.0565V30.0768H35.8037V24.319H37.5357L39.1029 28.4201L40.6701 24.319H42.4021V30.0768H41.2493V26.0565Z" fill="white"/>
<path d="M53.0604 35.5449L55.2307 32.4722L54.275 31.2919L50.8182 32.776L53.0801 29.817L52.1893 28.7168L48.5771 33.3632L49.6329 34.6565L53.0453 33.2522L53.0575 33.2675L50.9745 36.3132L52.0201 37.6148L57.3159 35.0477L56.425 33.9475L53.0604 35.5449Z" fill="white"/>
<g clip-path="url(#clip0_297_32)">
<path d="M136.074 43.1997C134.515 40.537 131.629 38.884 128.523 38.884C125.417 38.884 122.53 40.537 120.971 43.1997H108L108.114 43.3596C108.154 43.416 112.21 49.0551 118.598 53.1976L118.623 53.2133H122.002C123.662 55.0608 126.035 56.1208 128.523 56.1208C131.012 56.1208 133.385 55.0608 135.046 53.2133H138.378L138.404 53.1976C144.791 49.0551 148.846 43.4154 148.887 43.3596L149.001 43.1997H136.074Z" fill="black"/>
<path d="M147.563 44.7086H136.664C136.833 45.1902 136.959 45.6917 137.039 46.2078H137.326C137.252 45.8226 137.152 45.4431 137.025 45.0721C137.025 45.0721 146.232 44.8558 147.543 44.7335C146.747 45.6832 145.911 46.5992 145.038 47.4792H137.148L137.149 47.5022C137.149 48.0073 137.096 48.4986 137.01 48.9789H137.422C137.472 48.6143 137.509 48.2448 137.509 47.8662L137.508 47.8432C137.508 47.8432 143.863 47.6373 145.006 47.5113C144.039 48.4858 143.029 49.4152 141.977 50.2963H136.664C136.48 50.8177 136.246 51.3198 135.964 51.7955H136.517C136.709 51.4296 136.886 51.0547 137.025 50.6598C137.025 50.6598 140.953 50.4683 141.924 50.3399C140.775 51.3006 139.57 52.1928 138.316 53.0117H134.957L134.927 53.045C134.122 53.9489 133.136 54.6722 132.032 55.1675C130.928 55.6628 129.732 55.9189 128.522 55.9189C127.312 55.9189 126.116 55.6628 125.012 55.1675C123.908 54.6722 122.922 53.9489 122.118 53.045L122.087 53.0117H118.682C117.428 52.1922 116.222 51.2996 115.073 50.3387C116.082 50.4659 120.362 50.6598 120.362 50.6598C120.55 51.0601 120.819 51.4345 121.061 51.7955H121.08C120.798 51.3199 120.564 50.8178 120.38 50.2963H115.022C113.97 49.4153 112.959 48.486 111.993 47.5113C113.161 47.6391 119.784 47.8589 119.784 47.8662C119.784 48.2236 119.917 48.5737 120.025 48.9177C119.941 48.4504 119.898 47.9769 119.895 47.5022L119.897 47.4792H111.962C111.084 46.5926 110.242 45.6699 109.44 44.7135L120.138 45.0721C120.079 45.4319 120.047 45.8171 120.003 46.2078H120.006C120.086 45.6917 120.211 45.1902 120.38 44.7086H109.436C109.078 44.2824 108.731 43.8465 108.396 43.4015H121.083L121.112 43.3512C122.628 40.7206 125.467 39.0864 128.522 39.0864C131.576 39.0864 134.416 40.7206 135.932 43.3512L135.961 43.4015H148.603C148.269 43.8468 147.922 44.2827 147.563 44.7086Z" fill="white"/>
<path d="M128.523 40.0754C124.369 40.0754 121.001 43.4002 121.001 47.5027C121.001 51.6039 124.369 54.9299 128.523 54.9299C132.677 54.9299 136.045 51.6039 136.045 47.5027C136.045 43.4002 132.677 40.0754 128.523 40.0754Z" fill="black"/>
<path d="M128.523 54.475C124.623 54.475 121.461 51.3531 121.461 47.502C121.461 43.6509 124.623 40.5291 128.523 40.5291C132.423 40.5291 135.584 43.6509 135.584 47.502C135.584 51.3531 132.423 54.475 128.523 54.475Z" fill="white"/>
<path d="M135.171 47.5028C135.171 51.128 132.194 54.0669 128.522 54.0669C124.85 54.0669 121.874 51.128 121.874 47.5028C121.874 43.8776 124.85 40.9387 128.522 40.9387C132.194 40.9387 135.171 43.8776 135.171 47.5028Z" fill="black"/>
<path d="M133.331 45.7097H134.22V49.4076H133.331V45.7097ZM127.614 45.7097H128.503V49.4076H127.614V45.7097ZM131.755 45.7097V47.9527L130.129 45.7097H129.291V49.4076H130.129V47.1646L131.755 49.4076H132.594V45.7097H131.755ZM125.72 45.7097L124.744 48.0169L123.767 45.7097H122.752V49.4076H123.591V47.313L124.459 49.4003L124.462 49.4076H124.991L124.995 49.4009L125.947 47.1113V49.4076H126.785V45.7097H125.72Z" fill="white"/>
</g>
<path d="M89.1594 57.5274H93.6139C92.932 57.1641 92.6898 56.2019 92.6516 55.2778C92.2119 51.1037 89.8858 47.8537 89.3187 47.0125C91.9633 45.4257 93.1295 42.9977 93.1295 40.7545C93.1295 37.0201 89.8412 35.2549 86.9926 35.2549H79.4856C79.766 35.6564 79.97 35.8157 79.97 36.7397V55.7621C79.97 56.6862 79.5685 57.1259 79.2881 57.5274H82.6975C82.4171 57.1259 82.0156 56.6862 82.0156 55.7621V48.7777C84.3161 48.7395 86.2343 48.3635 87.7765 47.7517C90.1216 50.2689 90.402 53.9204 90.4466 54.921C90.4785 55.9215 89.9623 56.8073 89.1594 57.5274ZM82.0156 47.0571V36.5804H86.4319C89.4844 36.5804 90.4849 38.5049 90.4466 40.5506C90.2427 46.2095 84.622 47.0571 82.0156 47.0571Z" fill="black"/>
<path d="M86.0244 50.989C87.0822 50.9699 88.0955 50.887 88.994 50.7341C88.873 50.3262 88.4333 49.4468 88.2102 49.0772C87.3881 49.2174 86.6298 49.262 86.0244 49.262V48.8223C85.744 48.9242 84.5013 49.1027 83.9788 49.1664V57.9734C83.9788 58.8975 83.5773 59.3372 83.2969 59.7387H86.7063C86.4259 59.3372 86.0244 58.8975 86.0244 57.9734V50.989Z" fill="black"/>
<path d="M89.6374 38.728H86.0241V45.91C85.5653 46.0693 84.6412 46.3688 83.9785 46.4325V38.8873C83.9785 37.9633 83.7809 37.8039 83.4941 37.4025H88.4903C88.8982 37.6446 89.4398 38.2245 89.6374 38.728Z" fill="black"/>
<path d="M93.6648 40.0088C94.2766 40.7417 94.5124 41.7231 94.4869 42.7363C94.3786 45.8016 92.6771 47.4521 90.7334 48.3252C91.0202 48.7585 91.377 49.5742 91.6001 50.0203C91.6574 50.0012 91.8295 49.9375 91.8805 49.9183C94.2256 52.4356 94.4487 56.1062 94.4869 57.1067C94.5251 58.1072 94.0026 58.993 93.206 59.7131H97.6605C96.9786 59.3499 96.7365 58.3876 96.6982 57.4636C96.2585 53.2895 93.9325 50.0394 93.3653 49.1982C96.01 47.6114 97.1762 45.1835 97.1762 42.9403C97.1762 39.9961 95.0668 38.2564 92.8045 37.6637C92.9893 37.9568 93.4864 38.9446 93.6648 40.0088Z" fill="black"/>
<defs>
<linearGradient id="paint0_linear_297_32" x1="23.8074" y1="29.8073" x2="53.3487" y2="61.0367" gradientUnits="userSpaceOnUse">
<stop offset="0.0273393" stop-color="#949AA0"/>
<stop offset="0.403335" stop-color="#1A1D1E"/>
<stop offset="1" stop-color="#040606"/>
</linearGradient>
<linearGradient id="paint1_linear_297_32" x1="38.9998" y1="31.9255" x2="38.9998" y2="58.0738" gradientUnits="userSpaceOnUse">
<stop stop-color="#7CD1F4"/>
<stop offset="1" stop-color="#1274B9"/>
</linearGradient>
<clipPath id="clip0_297_32">
<rect width="41" height="41" fill="white" transform="translate(108 27)"/>
</clipPath>
</defs>
</svg>
